<svg width="640" height="512" viewBox="0 0 640 512" fill="none" xmlns="http://www.w3.org/2000/svg">
<path d="M32 32C49.7 32 64 46.3 64 64V320H288V160C288 142.3 302.3 128 320 128H544C597 128 640 171 640 224V448C640 465.7 625.7 480 608 480C590.3 480 576 465.7 576 448V416H352H320H64V448C64 465.7 49.7 480 32 480C14.3 480 0 465.7 0 448V64C0 46.3 14.3 32 32 32ZM176 128C197.217 128 217.566 136.429 232.569 151.431C247.571 166.434 256 186.783 256 208C256 229.217 247.571 249.566 232.569 264.569C217.566 279.571 197.217 288 176 288C154.783 288 134.434 279.571 119.431 264.569C104.429 249.566 96 229.217 96 208C96 186.783 104.429 166.434 119.431 151.431C134.434 136.429 154.783 128 176 128Z" fill="url(#paint0_linear_1673_2)"/>
<defs>
<linearGradient id="paint0_linear_1673_2" x1="1.07435e-05" y1="289.5" x2="640" y2="289.5" gradientUnits="userSpaceOnUse">
<stop stop-color="#4F46E5"/>
<stop offset="1" stop-color="#0094FF"/>
</linearGradient>
</defs>
</svg>
